<svg xmlns="http://www.w3.org/2000/svg"
    xmlns:xlink="http://www.w3.org/1999/xlink" viewBox="0,0,256,256" width="70px" height="70px" fill-rule="nonzero">
    <g fill="none" fill-rule="nonzero" stroke="none" stroke-width="1" stroke-linecap="butt" stroke-linejoin="miter" stroke-miterlimit="10" stroke-dasharray="" stroke-dashoffset="0" font-family="none" font-weight="none" font-size="none" text-anchor="none" style="mix-blend-mode: normal">
        <g transform="scale(2.56,2.56)">
            <path d="M26.5,93c-8.547,0 -15.5,-6.953 -15.5,-15.5v-51c0,-8.547 6.953,-15.5 15.5,-15.5h51c8.547,0 15.5,6.953 15.5,15.5v51c0,8.547 -6.953,15.5 -15.5,15.5z" fill="#000000" opacity="0.35"></path>
            <path d="M24.5,91c-8.547,0 -15.5,-6.953 -15.5,-15.5v-51c0,-8.547 6.953,-15.5 15.5,-15.5h51c8.547,0 15.5,6.953 15.5,15.5v51c0,8.547 -6.953,15.5 -15.5,15.5z" fill="#f2f2f2"></path>
            <path d="M75.5,15.5h-51c-4.971,0 -9,4.029 -9,9v51c0,4.971 4.029,9 9,9h51c4.971,0 9,-4.029 9,-9v-51c0,-4.971 -4.029,-9 -9,-9z" fill="#EC4646"></path>
            <path d="M75.5,86h-51c-5.79,0 -10.5,-4.71 -10.5,-10.5v-51c0,-5.79 4.71,-10.5 10.5,-10.5h51c5.79,0 10.5,4.71 10.5,10.5v51c0,5.79 -4.71,10.5 -10.5,10.5zM24.5,17c-4.136,0 -7.5,3.364 -7.5,7.5v51c0,4.136 3.364,7.5 7.5,7.5h51c4.136,0 7.5,-3.364 7.5,-7.5v-51c0,-4.136 -3.364,-7.5 -7.5,-7.5z" fill="#EC4646"></path>
            <g fill="#f2f2f2">
                <path d="M71.059,63.419l-8.599,-5.688c-1.05,-0.636 -2.362,-0.647 -3.423,-0.032c0,0 0,0 -3.688,2.15c-0.494,0.287 -0.97,0.341 -1.354,0.27c-0.488,-0.089 -0.824,-0.356 -0.846,-0.375c-2.027,-1.486 -4.394,-3.453 -6.919,-5.975c-2.523,-2.523 -4.49,-4.89 -5.975,-6.919c-0.017,-0.024 -0.285,-0.36 -0.375,-0.846c-0.069,-0.384 -0.017,-0.858 0.27,-1.354c2.15,-3.688 2.15,-3.688 2.15,-3.688c0.617,-1.061 0.604,-2.375 -0.032,-3.423l-5.688,-8.599c-0.705,-1.065 -2.146,-1.346 -3.196,-0.619c0,0 -2.694,1.844 -3.583,2.47c-1.424,1.003 -1.883,2.528 -1.885,4.654c-0.004,2.991 2.573,12.359 13.426,23.212v0v0v0v0c10.855,10.855 20.222,13.429 23.212,13.426c2.125,-0.002 3.651,-0.462 4.654,-1.885c0.626,-0.889 2.47,-3.583 2.47,-3.583c0.728,-1.05 0.448,-2.491 -0.619,-3.196z"></path>
            </g>
        </g>
    </g>
</svg>
