<svg xmlns="http://www.w3.org/2000/svg" viewBox="0 0 48 48" width="70px" height="70px" fill-rule="evenodd" clip-rule="evenodd">
    <path fill="#f2f2f2" d="M 37.8 9.9 C 34.1 6.1 29.1 4 23.7 4 C 12.7 4 3.7 13 3.7 24 c 0 3.4 0.8 6.7 2.5 9.6 L 3.6 43 c -0.1 0.3 0 0.7 0.3 1 c 0.2 0.2 0.4 0.3 0.7 0.3 c 0.1 0 0.2 0 0.3 0 l 9.7 -2.5 c 2.8 1.5 6 2.2 9.2 2.2 c 11 0 20 -9 20 -20 C 43.7 18.7 41.6 13.6 37.8 9.9 z"/>
    <linearGradient id="k87TA_gnBJ8uBlK4qfs8ib" x1="15.389" x2="28.863" y1="10.726" y2="39.265" gradientUnits="userSpaceOnUse">
        <stop offset="0" stop-color="#2ecc75"/>
        <stop offset="1" stop-color="#0b964a"/>
    </linearGradient>
    <path fill="url(#k87TA_gnBJ8uBlK4qfs8ib)" d="M 34.9 12.8 c -3 -3 -6.9 -4.6 -11.2 -4.6 c -8.7 0 -15.8 7.1 -15.8 15.8 c 0 3 0.8 5.9 2.4 8.4 l 0.4 0.6 l -1.6 5.8 l 6 -1.6 l 0.6 0.3 c 2.4 1.4 5.2 2.2 8 2.2 h 0 c 8.7 0 15.8 -7.1 15.8 -15.8 C 39.5 19.8 37.9 15.8 34.9 12.8 z"/>
    <path d="M 28.9 33.9 c -1 0 -2.4 -0.3 -5.1 -1.3 c -3.1 -1.2 -6.1 -3.8 -8.5 -7.4 l -0.1 -0.1 c -0.6 -0.9 -2.1 -3.1 -2.1 -5.5 c 0 -2.6 1.3 -4 1.8 -4.5 l 0.1 -0.1 C 15.8 14.1 16.7 14 17.1 14 c 0.4 0 0.7 0 1 0 c 0.7 0 1.4 0.2 1.9 1.4 l 0 0 c 0.3 0.6 0.7 1.6 1 2.4 c 0.2 0.5 0.4 1 0.4 1.1 c 0.3 0.6 0.3 1.2 0 1.7 l -0.1 0.1 c -0.1 0.3 -0.3 0.5 -0.5 0.9 l -0.2 0.3 c -0.2 0.2 -0.3 0.4 -0.5 0.5 c 0.4 0.6 1.2 1.9 2.3 2.9 c 1.4 1.2 2.6 1.8 3.2 2 c 0.1 0.1 0.2 0.1 0.3 0.1 c 0.4 -0.5 1.1 -1.3 1.3 -1.6 c 0.8 -1.2 1.9 -0.8 2.2 -0.6 c 0.6 0.2 3.3 1.6 3.4 1.6 l 0.3 0.1 c 0.4 0.2 0.8 0.4 1.1 0.8 c 0.4 0.7 0.2 2.1 -0.2 3.1 c -0.5 1.5 -2.8 2.8 -4.1 2.9 l -0.2 0 C 29.5 33.9 29.2 33.9 28.9 33.9 z M 17.2 16 c -0.1 0 -0.4 -0.1 -0.7 0.3 l -0.1 0.1 c -0.5 0.5 -1.3 1.4 -1.3 3.2 c 0 1.8 1.3 3.8 1.7 4.3 c 0 0 0.1 0.1 0.1 0.2 c 2.2 3.2 4.9 5.6 7.5 6.6 c 3.4 1.3 4.3 1.2 5 1.2 l 0.3 0 c 0.6 -0.1 2.1 -1 2.4 -1.6 c 0.2 -0.6 0.3 -1.1 0.3 -1.4 c 0 0 -0.1 0 -0.1 -0.1 l -0.3 -0.1 c -0.6 -0.3 -2.8 -1.4 -3.1 -1.5 c -0.4 0.6 -1.3 1.6 -1.5 1.8 c -0.4 0.5 -1.1 0.9 -2.2 0.4 c -0.1 0 -0.2 -0.1 -0.3 -0.1 c -0.7 -0.3 -2.1 -0.9 -3.8 -2.4 c -1.5 -1.3 -2.5 -2.9 -2.8 -3.5 c -0.4 -0.8 -0.3 -1.5 0.4 -2.2 c 0.1 -0.1 0.3 -0.3 0.4 -0.5 l 0.3 -0.3 c 0.1 -0.1 0.2 -0.2 0.3 -0.4 l 0 -0.1 c -0.1 -0.2 -0.3 -0.7 -0.5 -1.2 c -0.3 -0.8 -0.7 -1.8 -1 -2.4 v 0 c -0.1 -0.1 -0.1 -0.2 -0.1 -0.2 c 0 0 0 0 -0.1 0 C 17.7 16 17.5 16 17.2 16 z M 32.4 28.6 L 32.4 28.6 L 32.4 28.6 z M 19.6 19.7 L 19.6 19.7 L 19.6 19.7 z" opacity=".05"/>
    <path d="M 28.9 33.4 c -0.8 0 -2.2 -0.2 -4.9 -1.3 c -3 -1.2 -5.9 -3.7 -8.2 -7.2 l -0.1 -0.1 c -0.6 -0.8 -2 -3 -2 -5.2 c 0 -2.4 1.2 -3.7 1.7 -4.2 l 0.1 -0.1 c 0.6 -0.7 1.4 -0.8 1.6 -0.8 c 0.4 0 0.7 0 0.9 0 c 0.5 0 1.1 0.1 1.5 1.1 l 0 0 c 0.2 0.6 0.7 1.6 1 2.4 c 0.2 0.6 0.4 1 0.5 1.1 c 0.1 0.2 0.3 0.7 0 1.3 l -0.1 0.1 c -0.1 0.3 -0.2 0.5 -0.5 0.8 L 20.2 21.6 c -0.2 0.2 -0.3 0.4 -0.5 0.6 c -0.2 0.2 -0.2 0.2 -0.1 0.4 c 0.3 0.6 1.2 2 2.5 3.2 c 1.5 1.3 2.7 1.8 3.4 2.1 c 0.1 0.1 0.3 0.1 0.3 0.2 c 0.3 0.1 0.3 0.1 0.4 0 c 0.3 -0.3 1.2 -1.4 1.5 -1.8 c 0.6 -0.8 1.3 -0.6 1.7 -0.4 c 0.5 0.2 3 1.4 3.3 1.6 l 0.3 0.1 c 0.4 0.2 0.7 0.3 0.9 0.6 c 0.3 0.4 0.1 1.6 -0.2 2.7 c -0.5 1.4 -2.6 2.5 -3.6 2.6 l -0.2 0 C 29.4 33.4 29.2 33.4 28.9 33.4 z M 17.2 15.5 c 0 0 -0.1 0 -0.1 0 c -0.2 0 -0.6 0 -1 0.4 l -0.1 0.1 c -0.5 0.5 -1.4 1.5 -1.4 3.5 c 0 1.9 1.3 3.9 1.8 4.6 c 0 0 0.1 0.1 0.1 0.2 c 2.2 3.3 5 5.7 7.8 6.8 c 3.5 1.4 4.4 1.3 5.2 1.2 l 0.3 0 c 0.7 -0.1 2.5 -1 2.8 -1.9 c 0.3 -0.9 0.3 -1.7 0.3 -1.9 c 0 0 -0.2 -0.1 -0.4 -0.2 l -0.3 -0.1 c -0.6 -0.3 -2.8 -1.4 -3.2 -1.5 c -0.4 -0.1 -0.4 -0.1 -0.5 0 c -0.3 0.5 -1.3 1.7 -1.5 1.9 c -0.6 0.7 -1.4 0.4 -1.6 0.2 c -0.1 0 -0.2 -0.1 -0.3 -0.1 c -0.7 -0.3 -2.1 -0.9 -3.6 -2.3 c -1.4 -1.3 -2.4 -2.8 -2.7 -3.4 c -0.5 -0.8 0.1 -1.3 0.3 -1.6 c 0.1 -0.1 0.3 -0.3 0.4 -0.5 l 0.3 -0.3 c 0.2 -0.2 0.2 -0.3 0.3 -0.5 l 0.1 -0.1 c 0 -0.1 0.1 -0.2 0 -0.4 c -0.1 -0.1 -0.2 -0.6 -0.5 -1.2 c -0.3 -0.8 -0.7 -1.8 -1 -2.4 l 0 0 c -0.2 -0.5 -0.4 -0.5 -0.6 -0.5 C 17.7 15.5 17.5 15.5 17.2 15.5 z" opacity=".07"/>
    <path fill="#ffffff" fill-rule="evenodd" d="M 19 15.8 c -0.4 -0.8 -0.7 -0.8 -1.1 -0.8 C 17.7 15 17.4 15 17.1 15 s -0.8 0.1 -1.3 0.6 c -0.4 0.5 -1.7 1.6 -1.7 4 s 1.7 4.6 1.9 4.9 c 0.2 0.3 3.3 5.3 8.1 7.2 c 4 1.6 4.8 1.3 5.7 1.2 c 0.9 -0.1 2.8 -1.1 3.2 -2.3 c 0.4 -1.1 0.4 -2.1 0.3 -2.3 c -0.1 -0.2 -0.4 -0.3 -0.9 -0.6 s -2.8 -1.4 -3.2 -1.5 c -0.4 -0.2 -0.8 -0.2 -1.1 0.2 c -0.3 0.5 -1.2 1.5 -1.5 1.9 c -0.3 0.3 -0.6 0.4 -1 0.1 c -0.5 -0.2 -2 -0.7 -3.8 -2.4 c -1.4 -1.3 -2.4 -2.8 -2.6 -3.3 c -0.3 -0.5 0 -0.7 0.2 -1 c 0.2 -0.2 0.5 -0.6 0.7 -0.8 c 0.2 -0.3 0.3 -0.5 0.5 -0.8 c 0.2 -0.3 0.1 -0.6 0 -0.8 C 20.4 19.1 19.5 16.8 19 15.8 z" clip-rule="evenodd"/>
</svg>
